<?xml version="1.0" standalone="no"?>
<!DOCTYPE svg PUBLIC "-//W3C//DTD SVG 20010904//EN"
 "http://www.w3.org/TR/2001/REC-SVG-20010904/DTD/svg10.dtd">
<svg version="1.0" xmlns="http://www.w3.org/2000/svg"
 width="90.000000pt" height="30.000000pt" viewBox="0 0 692.000000 150.000000"
 preserveAspectRatio="xMidYMid meet">

<g transform="translate(0.000000,150.000000) scale(0.100000,-0.100000)"
fill="white" stroke="none">
<path d="M695 1194 c-93 -162 -171 -302 -173 -310 -2 -7 60 -124 138 -259
l142 -245 223 0 223 0 41 -71 c23 -39 41 -75 41 -80 0 -5 -99 -9 -232 -9
l-233 0 -62 -108 -62 -107 250 -3 c138 -1 360 -1 495 0 l244 3 -173 300 -173
300 -225 3 -225 2 -77 135 -78 134 43 75 c24 41 45 75 48 75 3 0 41 -62 85
-139 l79 -140 133 0 133 0 -27 48 c-16 26 -111 193 -213 370 -102 177 -187
321 -190 321 -3 0 -81 -133 -175 -295z"/>
<path d="M2709 1067 c-29 -16 -52 -38 -69 -68 l-25 -44 0 -410 0 -410 25 -45
c38 -67 85 -90 188 -90 93 0 134 13 173 56 44 49 49 81 49 330 l0 234 -110 0
-110 0 0 -75 0 -75 35 0 35 0 0 -143 c0 -127 -2 -146 -18 -160 -26 -24 -88
-22 -102 2 -6 13 -10 151 -10 380 0 399 -1 391 65 391 51 0 65 -27 65 -127 l0
-83 75 0 75 0 0 108 c0 113 -15 168 -56 204 -60 53 -207 66 -285 25z"/>
<path d="M4868 1076 c-39 -17 -78 -56 -94 -95 -9 -23 -14 -73 -14 -155 0 -173
19 -208 187 -345 81 -66 93 -91 93 -204 0 -108 -9 -127 -64 -127 -54 0 -66 23
-66 123 l0 87 -75 0 -75 0 0 -109 c0 -120 8 -152 48 -195 40 -43 81 -56 174
-56 157 0 208 59 216 247 8 187 -23 258 -158 363 -114 87 -130 114 -130 216 0
92 13 114 68 114 52 0 62 -20 62 -121 l0 -89 80 0 80 0 0 80 c0 150 -36 233
-117 266 -40 17 -178 17 -215 0z"/>
<path d="M6585 1071 c-50 -23 -70 -45 -90 -100 -12 -36 -15 -108 -15 -425 0
-231 4 -396 10 -418 14 -48 55 -97 97 -114 42 -18 184 -18 226 0 42 17 83 66
97 114 5 20 10 81 10 135 l0 97 -75 0 -75 0 0 -83 c0 -106 -14 -129 -73 -125
-67 5 -67 6 -67 393 0 387 0 388 67 393 59 4 73 -19 73 -125 l0 -83 75 0 75 0
0 103 c-1 194 -55 257 -220 257 -52 0 -87 -6 -115 -19z"/>
<path d="M2160 1074 c0 -3 -25 -162 -55 -353 -30 -190 -64 -418 -75 -506 -11
-88 -23 -170 -25 -182 -5 -22 -3 -23 73 -23 l79 0 12 93 c19 152 10 138 99
135 l77 -3 15 -113 14 -112 78 0 c43 0 78 2 78 4 0 36 -140 977 -155 1044 -5
21 -10 22 -110 22 -58 0 -105 -3 -105 -6z m135 -459 c14 -103 25 -196 25 -207
0 -15 -8 -18 -55 -18 -37 0 -55 4 -55 13 0 6 11 95 25 196 14 101 25 190 25
199 0 8 2 13 5 10 3 -3 16 -90 30 -193z"/>
<path d="M3190 545 l0 -535 75 0 75 0 0 535 0 535 -75 0 -75 0 0 -535z"/>
<path d="M3490 545 l0 -535 195 0 195 0 0 75 0 75 -120 0 -120 0 0 460 0 460
-75 0 -75 0 0 -535z"/>
<path d="M3980 545 l0 -535 200 0 200 0 0 75 0 75 -125 0 -125 0 0 155 0 155
105 0 105 0 0 75 0 75 -105 0 -105 0 0 155 0 155 125 0 126 0 -3 73 -3 72
-197 3 -198 2 0 -535z"/>
<path d="M5280 1076 c0 -2 43 -142 95 -312 l95 -309 0 -222 0 -223 75 0 75 0
0 218 0 217 95 309 c52 170 95 312 95 317 0 5 -35 9 -79 9 l-79 0 -47 -192
c-26 -106 -51 -197 -55 -201 -4 -4 -26 65 -48 155 -23 90 -47 180 -52 201
l-11 37 -79 0 c-44 0 -80 -2 -80 -4z"/>
<path d="M5910 545 l0 -535 70 0 70 0 0 293 c0 160 4 285 9 277 4 -8 37 -140
72 -292 l64 -278 77 0 78 0 0 535 0 535 -70 0 -70 0 -1 -297 c0 -190 -4 -291
-10 -278 -5 11 -36 137 -69 280 -33 143 -63 268 -66 278 -4 14 -18 17 -80 17
l-74 0 0 -535z"/>
<path d="M225 377 c-115 -199 -210 -365 -212 -369 -2 -5 56 -8 129 -8 l133 1
140 245 c77 134 141 251 143 259 2 10 -98 200 -123 232 -1 2 -95 -160 -210
-360z"/>
</g>
</svg>
