<?xml version="1.0" standalone="no"?>
<!DOCTYPE svg PUBLIC "-//W3C//DTD SVG 20010904//EN"
 "http://www.w3.org/TR/2001/REC-SVG-20010904/DTD/svg10.dtd">
<svg version="1.0" xmlns="http://www.w3.org/2000/svg"
 width="16px" height="16px" viewBox="0 0 391.000000 426.000000"
 preserveAspectRatio="xMidYMid meet">

<g transform="translate(0.000000,426.000000) scale(0.100000,-0.100000)"
fill="#919191" stroke="none">
<path d="M1192 4063 c-76 -37 -102 -98 -102 -239 l0 -92 -127 -7 c-278 -15
-407 -66 -558 -219 -83 -84 -144 -195 -172 -313 -17 -73 -18 -147 -18 -1238 0
-934 3 -1173 13 -1225 54 -259 250 -461 512 -526 71 -18 135 -19 1245 -19
1087 0 1175 1 1239 18 266 68 463 278 513 547 17 87 18 183 18 1195 0 1182 -1
1200 -51 1335 -50 132 -152 254 -283 339 -106 68 -211 94 -432 107 l-117 7 -3
117 c-4 114 -5 119 -35 157 -44 55 -87 75 -156 70 -42 -2 -65 -10 -92 -31 -58
-44 -70 -76 -74 -203 l-4 -113 -528 0 -528 0 -3 119 c-4 116 -5 120 -35 158
-17 21 -46 46 -65 55 -42 22 -114 23 -157 1z m-100 -805 c3 -81 9 -122 21
-145 51 -95 188 -123 268 -56 53 45 69 93 69 211 l0 102 529 0 529 0 4 -112
c3 -81 9 -122 21 -145 51 -95 188 -123 268 -56 53 45 69 93 69 211 l0 102 83
0 c180 -1 281 -33 352 -111 78 -87 94 -160 95 -426 l0 -173 -1420 0 -1420 0 0
143 c1 279 18 365 94 453 69 81 159 110 342 113 l92 1 4 -112z m2306 -1695
c-4 -822 -2 -791 -66 -885 -39 -57 -122 -114 -187 -129 -68 -16 -2084 -25
-2233 -10 -58 6 -123 19 -147 30 -51 22 -119 82 -150 131 -48 77 -48 80 -52
868 l-4 742 1421 0 1421 0 -3 -747z"/>
</g>
</svg>
