<?xml version="1.0" standalone="no"?>
<!DOCTYPE svg PUBLIC "-//W3C//DTD SVG 20010904//EN"
 "http://www.w3.org/TR/2001/REC-SVG-20010904/DTD/svg10.dtd">
<svg version="1.0" xmlns="http://www.w3.org/2000/svg"
 width="20px" height="20px" viewBox="0 0 487.000000 450.000000"
 preserveAspectRatio="xMidYMid meet">

<g transform="translate(0.000000,450.000000) scale(0.100000,-0.100000)"
fill="#000000" stroke="none">
<path d="M185 4391 c-148 -69 -169 -272 -37 -365 22 -16 58 -32 79 -35 l38 -6
6 -1005 c6 -1066 6 -1065 55 -1212 37 -116 107 -223 210 -323 113 -110 239
-177 398 -211 80 -17 405 -33 689 -34 l189 0 -424 -353 c-233 -194 -431 -365
-440 -379 -31 -46 -42 -111 -28 -166 23 -97 106 -161 208 -162 60 0 97 16 161
69 24 20 74 61 111 91 37 30 227 189 423 353 196 163 358 297 361 297 3 0 6
-145 8 -323 l3 -323 26 -49 c36 -72 92 -108 173 -113 89 -6 161 33 203 111 16
28 19 72 23 370 l5 337 415 -345 c228 -190 442 -369 475 -397 79 -67 114 -81
192 -76 49 3 72 10 105 34 54 38 90 107 90 173 0 103 -3 106 -467 493 l-424
353 337 7 c463 10 570 23 709 88 213 99 376 286 442 505 42 141 44 176 50
1200 l6 990 37 6 c62 10 117 55 149 124 46 100 -1 224 -104 274 l-43 21 -2185
0 c-2104 0 -2185 -1 -2224 -19z m3932 -1398 c-3 -701 -7 -1002 -16 -1037 -35
-152 -148 -267 -297 -303 -62 -15 -193 -17 -1319 -19 -687 -1 -1299 2 -1360 6
-144 11 -207 35 -285 107 -80 74 -116 149 -130 268 -6 54 -10 465 -10 1028 l0
937 1711 0 1710 0 -4 -987z"/>
<path d="M2360 3551 c-69 -22 -112 -58 -146 -121 -18 -33 -19 -71 -22 -589 -2
-355 1 -572 8 -603 35 -167 227 -233 350 -122 73 66 71 48 68 710 l-3 590 -27
42 c-47 71 -156 115 -228 93z"/>
<path d="M1500 3121 c-80 -26 -129 -73 -150 -146 -8 -28 -10 -149 -8 -405 l3
-365 27 -41 c89 -137 284 -135 365 4 l28 47 0 380 0 380 -28 47 c-46 79 -156
125 -237 99z"/>
<path d="M3175 2682 c-45 -21 -91 -70 -112 -119 -17 -42 -18 -299 -1 -357 17
-57 82 -119 141 -135 95 -27 195 13 244 97 28 46 28 50 28 212 0 157 -1 167
-25 210 -37 66 -93 101 -171 106 -49 4 -74 0 -104 -14z"/>
</g>
</svg>
