<?xml version="1.0" standalone="no"?>
<!DOCTYPE svg PUBLIC "-//W3C//DTD SVG 20010904//EN"
 "http://www.w3.org/TR/2001/REC-SVG-20010904/DTD/svg10.dtd">
<svg version="1.0" xmlns="http://www.w3.org/2000/svg"
 width="20px" height="20px" viewBox="0 0 491.000000 471.000000"
 preserveAspectRatio="xMidYMid meet">

<g transform="translate(0.000000,471.000000) scale(0.100000,-0.100000)"
fill="#000000" stroke="none">
<path d="M1005 4599 c-313 -23 -137 -27 1155 -27 818 0 1327 4 1300 9 -25 5
-106 14 -180 19 -160 12 -2114 11 -2275 -1z"/>
<path d="M700 4537 c-178 -74 -360 -257 -428 -432 -11 -27 -28 -86 -38 -130
-18 -75 -19 -135 -19 -925 0 -946 -4 -893 74 -1055 65 -136 153 -238 277 -323
102 -70 188 -104 346 -136 l27 -6 3 -278 c3 -264 4 -279 26 -322 26 -52 64
-96 108 -128 46 -32 147 -55 203 -47 91 14 136 47 359 268 l212 211 0 -69 c2
-245 109 -445 301 -558 130 -76 195 -85 669 -86 l374 -1 51 -25 c27 -13 77
-44 110 -67 228 -163 436 -304 474 -321 84 -37 183 -5 238 76 37 55 46 110 41
245 -1 50 -3 92 -3 92 35 -1 182 26 220 41 133 50 263 166 326 294 65 131 68
166 69 767 0 542 -5 636 -41 737 -72 206 -272 366 -484 388 -33 3 -66 9 -73
12 -9 5 -13 123 -16 531 -3 306 -9 560 -16 608 -38 284 -209 516 -465 633
l-65 29 -1402 0 -1403 0 -55 -23z m2679 -357 c158 -34 275 -158 301 -317 6
-32 10 -293 10 -580 l0 -523 -614 0 c-632 0 -722 -4 -825 -41 -195 -68 -350
-251 -386 -454 -9 -49 -14 -151 -15 -263 l0 -184 -247 -250 -248 -250 -7 149
c-7 164 -18 208 -74 290 -67 97 -165 156 -312 187 -161 33 -272 128 -321 273
-21 61 -21 78 -21 815 0 447 4 781 10 823 18 121 84 221 187 281 64 38 97 45
253 54 236 13 2245 4 2309 -10z m758 -1839 c63 -9 115 -43 145 -96 l23 -40 0
-565 c0 -617 2 -594 -58 -651 -49 -46 -75 -52 -249 -58 -165 -6 -167 -6 -210
-36 -50 -36 -84 -90 -93 -152 -3 -23 -8 -43 -10 -43 -2 0 -53 33 -112 74 -225
153 -202 148 -733 155 -481 7 -468 5 -530 74 -50 54 -52 86 -48 667 3 595 0
564 73 628 35 31 51 38 110 45 57 7 1640 5 1692 -2z"/>
</g>
</svg>
