<?xml version="1.0" standalone="no"?>
<!DOCTYPE svg PUBLIC "-//W3C//DTD SVG 20010904//EN"
 "http://www.w3.org/TR/2001/REC-SVG-20010904/DTD/svg10.dtd">
<svg version="1.0" xmlns="http://www.w3.org/2000/svg"
 width="12px" height="12px" viewBox="0 0 425.000000 463.000000"
 preserveAspectRatio="xMidYMid meet">

<g transform="translate(0.000000,463.000000) scale(0.100000,-0.100000)"
fill="#919191" stroke="none">
<path d="M565 4563 c-234 -62 -388 -201 -460 -417 -22 -65 -27 -97 -26 -180 0
-171 56 -311 172 -427 120 -121 261 -180 429 -181 117 -1 172 12 279 64 111
53 209 150 265 261 l39 77 319 0 318 0 0 -1122 c1 -1148 6 -1386 35 -1518 36
-165 149 -337 292 -444 163 -123 322 -165 618 -166 l111 0 12 -34 c20 -55 85
-147 141 -201 248 -239 628 -229 866 23 225 238 217 614 -20 847 -78 77 -174
132 -280 159 -93 24 -251 16 -342 -16 -148 -53 -269 -157 -339 -293 -20 -38
-39 -72 -41 -75 -7 -7 -254 0 -317 10 -121 19 -231 103 -282 214 -35 77 -43
195 -44 624 l0 362 323 0 322 0 29 -60 c102 -208 313 -340 546 -340 451 0 746
475 545 878 -129 257 -412 387 -694 321 -165 -40 -336 -182 -403 -336 l-23
-53 -322 0 -323 0 0 610 0 610 323 0 322 -1 35 -71 c40 -83 125 -180 208 -234
31 -21 95 -51 142 -67 73 -26 99 -30 190 -30 89 0 118 4 189 28 244 83 401
287 418 546 19 288 -176 551 -462 624 -76 19 -214 19 -290 0 -165 -42 -325
-168 -395 -313 l-35 -72 -847 0 -847 0 -20 45 c-64 144 -205 271 -361 326 -50
17 -91 23 -180 25 -63 2 -124 0 -135 -3z m188 -409 c75 -26 137 -111 137 -189
0 -73 -55 -155 -125 -186 -175 -80 -354 125 -254 288 26 42 74 78 119 91 50
15 71 14 123 -4z m2867 -9 c70 -36 110 -104 110 -187 0 -67 -30 -121 -88 -163
-38 -26 -52 -30 -110 -30 -82 0 -130 26 -173 94 -72 113 -8 269 124 302 38 9
102 2 137 -16z m22 -1641 c66 -46 89 -95 86 -175 -3 -53 -9 -75 -31 -106 -50
-73 -139 -103 -226 -77 -182 54 -189 308 -11 383 14 6 51 9 83 8 44 -3 67 -10
99 -33z m-29 -1608 c39 -17 92 -71 106 -109 38 -101 -13 -220 -111 -262 -100
-41 -214 3 -259 100 -42 90 -15 188 69 252 38 29 51 33 103 33 33 0 74 -6 92
-14z"/>
</g>
</svg>
