<?xml version="1.0" standalone="no"?>
<!DOCTYPE svg PUBLIC "-//W3C//DTD SVG 20010904//EN" "http://www.w3.org/TR/2001/REC-SVG-20010904/DTD/svg10.dtd">
<svg version="1.0" xmlns="http://www.w3.org/2000/svg"
    width="20px" height="20px" viewBox="0 0 490.000000 454.000000"
    preserveAspectRatio="xMidYMid meet">

    <g transform="translate(0.000000,454.000000) scale(0.100000,-0.100000)"
        fill="#000000" stroke="none">
        <path
            d="M1835 4279 c-154 -21 -318 -83 -446 -169 -98 -66 -237 -211 -296
-310 -104 -174 -142 -298 -150 -492 -7 -159 5 -251 48 -381 89 -264 296 -495
546 -608 131 -60 226 -81 387 -87 165 -5 244 5 366 45 560 187 848 795 639
1353 -90 241 -310 469 -550 571 -164 70 -380 101 -544 78z m284 -425 c182 -41
360 -200 428 -384 34 -90 46 -196 33 -289 -21 -151 -71 -253 -179 -361 -122
-122 -261 -180 -434 -180 -276 0 -500 166 -593 440 -27 78 -27 273 0 350 51
149 133 260 250 338 148 99 309 127 495 86z" />
        <path
            d="M3142 4217 c-114 -43 -171 -168 -127 -275 24 -55 51 -79 150 -130
126 -65 227 -166 283 -283 22 -46 45 -108 51 -137 16 -76 14 -218 -4 -287 -44
-173 -167 -325 -326 -402 -123 -61 -169 -120 -169 -215 1 -124 124 -225 242
-199 156 36 397 221 511 394 265 401 222 927 -105 1272 -102 108 -180 167
-293 221 -98 48 -162 60 -213 41z" />
        <path
            d="M1130 1799 c-192 -20 -358 -85 -509 -199 -136 -103 -251 -249 -319
-405 -66 -151 -82 -273 -85 -625 l-2 -255 27 -45 c85 -145 283 -143 360 3 21
39 23 60 29 332 6 215 11 305 23 348 59 216 252 393 466 429 112 19 1596 18
1698 -1 95 -17 215 -77 286 -142 69 -63 138 -165 165 -246 25 -75 41 -263 41
-498 0 -193 9 -226 73 -282 80 -70 188 -68 267 3 70 63 74 86 67 397 -7 364
-24 459 -111 638 -48 97 -117 188 -208 275 -140 133 -291 214 -476 256 -95 21
-115 22 -902 24 -443 1 -843 -2 -890 -7z" />
        <path
            d="M3880 1781 c-145 -45 -204 -203 -120 -320 33 -45 57 -60 162 -97 186
-67 320 -203 385 -389 27 -79 27 -85 33 -375 6 -327 6 -328 74 -388 34 -30 90
-52 131 -52 72 0 150 52 186 123 20 38 20 54 17 356 -4 284 -7 324 -26 394
-93 339 -337 605 -657 719 -81 29 -149 40 -185 29z" />
    </g>
</svg>