<svg width="230px" height="230px" fill="#4054d8" version="1.1" id="Layer_1"
    xmlns="http://www.w3.org/2000/svg" xmlnsXlink="http://www.w3.org/1999/xlink"
    viewBox="0 0 98.2 85" style="enableBackground:new 0 0 98.2 85" xmlSpace="preserve">
    <g>
        <polygon className="st9 stroke-animation"
            points="31.9,55.8 27.8,62.9 22.5,72 15,85 0,85 7.5,72 12.8,62.9 17.3,55.2 20.3,49.9 24.4,42.8 28.5,49.9 31.5,55.2" />
        <polygon className="st9 stroke-animation"
            points="75.7,72 70.4,62.9 45.1,62.9 42.2,57.8 40.6,55.2 37.6,49.9 36.4,47.9 36.4,47.9 33.1,42.2 28.9,34.9 31.9,29.8 36.4,21.9 41.6,13 49.1,0 56.6,13 62.3,22.9 69.8,35.9 73.4,42.2 58.4,42.2 54.8,35.9 49.1,26 43.9,34.9 48.1,42.2 49.7,44.8 52.6,49.9 77.9,49.9 80.9,55.2 85.4,62.9 90.7,72 98.2,85 41.5,85 45.1,78.7 49,72" />
    </g>
</svg>